# xmcd
#
# Track frame offsets:
#	150
#	1872
#	20359
#	41533
#	68708
#	85193
#	117557
#	148608
#	172130
#	208145
#
# Disc length: 2994 seconds
#
# Revision: 0
# Processed by: cddbd v1.5.1PL2 Copyright (c) Steve Scherf et al.
# Submitted via: EasyCDDAExtractor 8.0.2.1
#
DISCID=860bb00a
DTITLE=Saxon - Zeche Bochum 02-10-05 Disc 1
DYEAR=2005
DGENRE=Hard Rock
TTITLE0=Intro
TTITLE1=Motorcycle Man
TTITLE2=Play It Loud
TTITLE3=Strong Arm Of The Law
TTITLE4=Stallions Of The Highway
TTITLE5=Power And The Glory
TTITLE6=Frozen Rainbow
TTITLE7=Suzie Hold On
TTITLE8=The Eagle Has Landed
TTITLE9=Never Surrender
EXTD=
EXTT0=
EXTT1=
EXTT2=
EXTT3=
EXTT4=
EXTT5=
EXTT6=
EXTT7=
EXTT8=
EXTT9=
PLAYORDER=
